# xmcd
#
# Track frame offsets: 
#        150
#        12196
#        25435
#        44651
#        58936
#        76933
#        101263
#        116364
#        128319
#        147560
#        158856
#        172931
#
# Disc length: 2569 seconds
#
# Revision: 0
# Processed by: cddbd v1.4PL0 Copyright (c) Steve Scherf et al.
# Submitted via: ExactAudioCopy v0.90b4
#
DISCID=940a070c
DTITLE=Saved By the Blues - Shoe Suede Blues
DYEAR=2003
DGENRE=Blues
TTITLE0=Saved by the Blues
TTITLE1=Cab Driver
TTITLE2=Help Me
TTITLE3=Hound Dog
TTITLE4=Route 66
TTITLE5=Kiss and Tell
TTITLE6=Dress Sexy For Me
TTITLE7=Treat Her Right
TTITLE8=Big Boss Man
TTITLE9=Slender, Tender and Tall
TTITLE10=Wine-Texas BBQ
TTITLE11=Come On In My Kitchen
EXTD=
EXTT0=
EXTT1=
EXTT2=
EXTT3=
EXTT4=
EXTT5=
EXTT6=
EXTT7=
EXTT8=
EXTT9=
EXTT10=
EXTT11=
PLAYORDER=
